<svg xmlns="http://www.w3.org/2000/svg" viewBox="0 0 512 512" fill="none" role="img" aria-label="GlassBook icon">
  <defs>
    <linearGradient id="bg" x1="110" y1="84" x2="410" y2="424" gradientUnits="userSpaceOnUse">
      <stop offset="0" stop-color="#FFFDF7"/>
      <stop offset="1" stop-color="#F0EEE6"/>
    </linearGradient>
    <linearGradient id="glass" x1="162" y1="138" x2="350" y2="374" gradientUnits="userSpaceOnUse">
      <stop offset="0" stop-color="#D8ECE9"/>
      <stop offset="0.52" stop-color="#8DCAC5"/>
      <stop offset="1" stop-color="#5D9C9A"/>
    </linearGradient>
    <linearGradient id="sun" x1="286" y1="134" x2="392" y2="301" gradientUnits="userSpaceOnUse">
      <stop offset="0" stop-color="#F8D674"/>
      <stop offset="1" stop-color="#E7A63E"/>
    </linearGradient>
    <linearGradient id="book" x1="156" y1="124" x2="356" y2="390" gradientUnits="userSpaceOnUse">
      <stop offset="0" stop-color="#FFFFFF" stop-opacity="0.98"/>
      <stop offset="1" stop-color="#F7F5ED" stop-opacity="0.98"/>
    </linearGradient>
  </defs>
  <rect x="56" y="56" width="400" height="400" rx="94" fill="url(#bg)"/>
  <rect x="132" y="126" width="248" height="288" rx="54" fill="url(#book)"/>
  <path d="M166 146c0-15 12-27 27-27h125c15 0 27 12 27 27v220c0 15-12 27-27 27H193c-15 0-27-12-27-27V146Z" fill="#FBFAF4" stroke="#243948" stroke-width="16"/>
  <path d="M194 126v288" stroke="#2F7F77" stroke-width="14" stroke-linecap="round"/>
  <path d="M194 126h112l76 46v174c0 15-12 27-27 27h-49V126Z" fill="url(#sun)" opacity="0.96"/>
  <path d="M194 214c41 10 74 23 112 82" stroke="#243948" stroke-width="16" stroke-linecap="round"/>
  <path d="M194 302c38-15 76-20 152-29" stroke="#243948" stroke-width="16" stroke-linecap="round"/>
  <path d="M248 126c22 31 41 59 57 95" stroke="#243948" stroke-width="16" stroke-linecap="round"/>
  <path d="M194 338c25-22 53-27 82-27 29 0 56 5 76 15" stroke="#243948" stroke-width="16" stroke-linecap="round"/>
  <path d="M194 126v288" stroke="rgba(255,255,255,0.22)" stroke-width="6" stroke-linecap="round"/>
  <path d="M194 126H355" stroke="rgba(255,255,255,0.18)" stroke-width="6" stroke-linecap="round"/>
</svg>
