<svg xmlns="http://www.w3.org/2000/svg" viewBox="0 0 512 512" fill="none" role="img" aria-label="Nightframe logo">
  <defs>
    <linearGradient id="bg" x1="96" y1="64" x2="416" y2="448" gradientUnits="userSpaceOnUse">
      <stop offset="0" stop-color="#dfe9ff"/>
      <stop offset="0.52" stop-color="#bcd1ff"/>
      <stop offset="1" stop-color="#8aa8f3"/>
    </linearGradient>
    <linearGradient id="panel" x1="136" y1="124" x2="372" y2="392" gradientUnits="userSpaceOnUse">
      <stop offset="0" stop-color="#f8fbff"/>
      <stop offset="1" stop-color="#dce8ff"/>
    </linearGradient>
    <radialGradient id="glow" cx="0" cy="0" r="1" gradientUnits="userSpaceOnUse" gradientTransform="translate(174 164) rotate(90) scale(126 126)">
      <stop stop-color="#fff7c9"/>
      <stop offset="0.68" stop-color="#ffe27d" stop-opacity="0.5"/>
      <stop offset="1" stop-color="#ffe27d" stop-opacity="0"/>
    </radialGradient>
    <linearGradient id="moon" x1="174" y1="150" x2="240" y2="246" gradientUnits="userSpaceOnUse">
      <stop offset="0" stop-color="#fff7b9"/>
      <stop offset="1" stop-color="#ffd56a"/>
    </linearGradient>
    <filter id="soft" x="-20%" y="-20%" width="140%" height="140%">
      <feDropShadow dx="0" dy="10" stdDeviation="16" flood-color="#213258" flood-opacity="0.12"/>
    </filter>
  </defs>

  <rect x="28" y="28" width="456" height="456" rx="118" fill="url(#bg)"/>
  <rect x="72" y="72" width="368" height="368" rx="98" fill="url(#panel)" filter="url(#soft)"/>
  <circle cx="182" cy="156" r="106" fill="url(#glow)"/>

  <path
    d="M214 136c-30 0-55 24-55 54 0 31 25 55 55 55 18 0 34-9 44-22-3 0-5 1-8 1-30 0-55-25-55-55 0-13 4-24 11-33-3 0-6 0-8 0Z"
    fill="url(#moon)"
  />

  <g fill="#ffffff">
    <path d="M118 118l7 14 14 7-14 7-7 14-7-14-14-7 14-7 7-14Z" opacity="0.95"/>
    <path d="M392 120l7 14 14 7-14 7-7 14-7-14-14-7 14-7 7-14Z" opacity="0.92"/>
    <path d="M364 376l6 12 12 6-12 6-6 12-6-12-12-6 12-6 6-12Z" opacity="0.92"/>
    <path d="M152 382l6 12 12 6-12 6-6 12-6-12-12-6 12-6 6-12Z" opacity="0.84"/>
    <path d="M266 100l5 10 10 5-10 5-5 10-5-10-10-5 10-5 5-10Z" opacity="0.86"/>
  </g>

  <path
    d="M126 198c28-38 71-60 121-60 51 0 94 22 122 60"
    stroke="#ffffff"
    stroke-opacity="0.62"
    stroke-width="14"
    stroke-linecap="round"
  />
  <path
    d="M126 330c28 38 71 60 121 60 51 0 94-22 122-60"
    stroke="#ffffff"
    stroke-opacity="0.52"
    stroke-width="14"
    stroke-linecap="round"
  />

  <path
    d="M90 108v-26c0-10 8-18 18-18h26"
    stroke="#6f8fe8"
    stroke-opacity="0.5"
    stroke-width="10"
    stroke-linecap="round"
    stroke-linejoin="round"
  />
  <path
    d="M422 108v-26c0-10-8-18-18-18h-26"
    stroke="#6f8fe8"
    stroke-opacity="0.5"
    stroke-width="10"
    stroke-linecap="round"
    stroke-linejoin="round"
  />
  <path
    d="M90 404v26c0 10 8 18 18 18h26"
    stroke="#6f8fe8"
    stroke-opacity="0.5"
    stroke-width="10"
    stroke-linecap="round"
    stroke-linejoin="round"
  />
  <path
    d="M422 404v26c0 10-8 18-18 18h-26"
    stroke="#6f8fe8"
    stroke-opacity="0.5"
    stroke-width="10"
    stroke-linecap="round"
    stroke-linejoin="round"
  />
</svg>